<svg viewBox="0 0 1808 952" fill="none" xmlns="http://www.w3.org/2000/svg">
<g clip-path="url(#clip0)">
<path d="M358.166 546.487C362.735 538.843 365.765 529.174 366.353 519.606C366.727 513.466 365.358 507.02 362.395 500.958C357.747 491.436 349.764 486.087 342.051 480.919C336.295 477.063 330.855 473.422 327.01 468.22L326.321 467.292C324.048 464.239 321.48 460.779 321.073 457.872C320.666 454.932 317.997 452.84 315.08 453.01C312.117 453.213 309.821 455.667 309.821 458.641V559.402C305.083 556.529 299.248 554.765 292.858 554.765C277.275 554.765 264.586 564.909 264.586 577.383C264.586 589.856 277.275 600 292.858 600C308.442 600 321.13 589.856 321.13 577.383V511.476C329.623 514.721 343.521 522.988 347.343 542.292C346.631 543.343 345.953 544.474 345.161 545.379C343.091 547.72 343.318 551.293 345.67 553.352C347.999 555.432 351.573 555.184 353.642 552.843C355.158 551.124 356.504 549.111 357.793 547.007C357.928 546.849 358.053 546.679 358.166 546.487Z" fill="#828282" fill-opacity="0.3"/>
</g>
<g clip-path="url(#clip1)">
<path d="M349.387 97.3721C352.587 89.0612 353.928 79.0174 352.878 69.4898C352.2 63.3753 349.754 57.2565 345.803 51.788C339.601 43.1965 330.823 39.2849 322.344 35.5055C316.015 32.6856 310.035 30.0235 305.36 25.5522L304.523 24.7558C301.763 22.1341 298.644 19.1612 297.748 16.3667C296.846 13.5386 293.86 11.9315 291.014 12.5954C288.129 13.3005 286.285 16.1095 286.791 19.0403L303.947 118.329C298.789 116.306 292.738 115.561 286.442 116.649C271.086 119.302 260.311 131.458 262.434 143.75C264.558 156.041 278.788 163.876 294.144 161.223C309.5 158.57 320.276 146.414 318.152 134.122L306.931 69.1776C315.852 70.9297 330.955 76.7093 338.008 95.0806C337.485 96.2382 337.009 97.4681 336.383 98.4944C334.742 101.153 335.574 104.636 338.242 106.264C340.892 107.918 344.371 107.064 346.012 104.405C347.212 102.453 348.196 100.24 349.108 97.9483C349.215 97.7692 349.309 97.5808 349.387 97.3721Z" fill="#828282" fill-opacity="0.3"/>
</g>
<g clip-path="url(#clip2)">
<path d="M1135.17 898.487C1139.73 890.843 1142.77 881.174 1143.35 871.606C1143.73 865.466 1142.36 859.02 1139.4 852.958C1134.75 843.436 1126.76 838.087 1119.05 832.919C1113.29 829.063 1107.86 825.422 1104.01 820.22L1103.32 819.292C1101.05 816.239 1098.48 812.779 1098.07 809.872C1097.67 806.932 1095 804.84 1092.08 805.01C1089.12 805.213 1086.82 807.667 1086.82 810.641V911.402C1082.08 908.529 1076.25 906.765 1069.86 906.765C1054.27 906.765 1041.59 916.909 1041.59 929.383C1041.59 941.856 1054.27 952 1069.86 952C1085.44 952 1098.13 941.856 1098.13 929.383V863.475C1106.62 866.721 1120.52 874.988 1124.34 894.292C1123.63 895.343 1122.95 896.474 1122.16 897.379C1120.09 899.72 1120.32 903.293 1122.67 905.352C1125 907.432 1128.57 907.184 1130.64 904.843C1132.16 903.124 1133.5 901.111 1134.79 899.007C1134.93 898.849 1135.05 898.679 1135.17 898.487Z" fill="#828282" fill-opacity="0.3"/>
</g>
<g clip-path="url(#clip3)">
<path d="M1061.58 520.487C1066.15 512.843 1069.18 503.174 1069.77 493.607C1070.14 487.466 1068.77 481.02 1065.81 474.958C1061.16 465.437 1053.18 460.088 1045.46 454.919C1039.71 451.063 1034.27 447.422 1030.42 442.22L1029.73 441.293C1027.46 438.239 1024.89 434.779 1024.49 431.872C1024.08 428.932 1021.41 426.84 1018.49 427.01C1015.53 427.213 1013.23 429.667 1013.23 432.641V533.402C1008.5 530.529 1002.66 528.765 996.272 528.765C980.688 528.765 968 538.909 968 551.383C968 563.856 980.688 574 996.272 574C1011.86 574 1024.54 563.856 1024.54 551.383V485.476C1033.04 488.721 1046.93 496.988 1050.76 516.292C1050.04 517.343 1049.37 518.474 1048.57 519.379C1046.5 521.72 1046.73 525.294 1049.08 527.352C1051.41 529.432 1054.99 529.184 1057.06 526.843C1058.57 525.124 1059.92 523.111 1061.21 521.007C1061.34 520.849 1061.47 520.68 1061.58 520.487Z" fill="#828282" fill-opacity="0.3"/>
</g>
<g clip-path="url(#clip4)">
<path d="M1291.53 112.865C1297.12 105.938 1301.48 96.7897 1303.41 87.3998C1304.64 81.3723 1304.19 74.7981 1302.1 68.3808C1298.84 58.3008 1291.68 51.8842 1284.77 45.6849C1279.62 41.0589 1274.74 36.6902 1271.66 31L1271.11 29.9851C1269.29 26.6429 1267.23 22.8564 1267.24 19.9217C1267.25 16.9534 1264.9 14.5075 1261.99 14.2659C1259.02 14.0516 1256.41 16.1592 1255.99 19.1039L1241.85 118.867C1237.56 115.358 1232.03 112.792 1225.7 111.896C1210.27 109.709 1196.29 117.971 1194.54 130.321C1192.79 142.671 1203.93 154.496 1219.35 156.683C1234.78 158.87 1248.77 150.607 1250.52 138.257L1259.77 73.0023C1267.72 77.4078 1280.32 87.5432 1281.4 107.193C1280.55 108.134 1279.72 109.158 1278.81 109.943C1276.43 111.97 1276.15 115.54 1278.19 117.908C1280.2 120.295 1283.78 120.55 1286.16 118.523C1287.9 117.034 1289.51 115.23 1291.08 113.328C1291.24 113.19 1291.39 113.04 1291.53 112.865Z" fill="#828282" fill-opacity="0.3"/>
</g>
<g clip-path="url(#clip5)">
<path d="M47.1056 304.189C58.5658 312.234 72.476 317 87.5017 317C126.383 317 157.991 285.381 157.991 246.511C157.991 238.953 156.774 231.701 154.562 224.862C148.587 206.38 135.152 191.258 117.832 182.967C108.625 178.551 98.3765 175.997 87.499 176C48.6396 175.997 17.0098 207.646 17.0098 246.511C17.0098 262.13 22.1806 276.527 30.7968 288.22C35.3447 294.38 40.8297 299.776 47.1056 304.189ZM135.546 207.086C139.886 212.347 143.38 218.321 145.809 224.816C146.337 226.229 145.544 227.775 144.108 228.239L119.438 236.213C118.002 236.678 116.476 235.882 115.888 234.49C115.098 232.617 114.125 230.837 112.993 229.18C112.139 227.928 112.221 226.134 113.302 225.076L131.811 206.927C132.888 205.871 134.586 205.921 135.546 207.086ZM101.945 216.238L113.091 192.861C113.742 191.496 115.377 190.919 116.711 191.625C118.01 192.311 119.282 193.038 120.528 193.812C121.811 194.611 122.163 196.353 121.362 197.633L107.551 219.642C106.749 220.922 105.125 221.209 103.848 220.405C103.629 220.266 103.408 220.129 103.184 219.998C101.882 219.224 101.294 217.602 101.945 216.238ZM87.499 228.111C97.6328 228.111 105.888 236.374 105.891 246.508C105.888 256.65 97.6331 264.889 87.499 264.886C77.3652 264.886 69.1207 256.65 69.1207 246.508C69.1234 236.374 77.3679 228.111 87.499 228.111ZM39.6486 281.709L60.5045 266.377C61.7212 265.482 63.4221 265.753 64.4202 266.888C65.421 268.028 66.5038 269.092 67.6631 270.074C68.8169 271.047 69.1234 272.748 68.2592 273.984L53.4057 295.192C52.5415 296.431 50.8326 296.732 49.6377 295.808C45.7358 292.797 42.2109 289.333 39.1154 285.496C38.1691 284.318 38.4318 282.606 39.6486 281.709Z" fill="#828282" fill-opacity="0.3"/>
<path d="M87.4983 257.763C93.7189 257.763 98.7617 252.721 98.7617 246.5C98.7617 240.279 93.7189 235.237 87.4983 235.237C81.2777 235.237 76.2349 240.279 76.2349 246.5C76.2349 252.721 81.2777 257.763 87.4983 257.763Z" fill="#828282" fill-opacity="0.3"/>
</g>
<g clip-path="url(#clip6)">
<path d="M35.1056 920.189C46.5658 928.234 60.476 933 75.5017 933C114.383 933 145.991 901.381 145.991 862.511C145.991 854.953 144.774 847.701 142.562 840.862C136.587 822.38 123.152 807.258 105.832 798.967C96.6253 794.551 86.3765 791.997 75.499 792C36.6396 791.997 5.00977 823.646 5.00977 862.511C5.00977 878.13 10.1806 892.527 18.7968 904.22C23.3447 910.38 28.8297 915.776 35.1056 920.189ZM123.546 823.086C127.886 828.347 131.38 834.321 133.809 840.816C134.337 842.229 133.544 843.775 132.108 844.239L107.438 852.213C106.002 852.678 104.476 851.882 103.888 850.49C103.098 848.617 102.125 846.837 100.993 845.18C100.139 843.928 100.221 842.134 101.302 841.076L119.811 822.927C120.888 821.871 122.586 821.921 123.546 823.086ZM89.9451 832.238L101.091 808.861C101.742 807.496 103.377 806.919 104.711 807.625C106.01 808.311 107.282 809.038 108.528 809.812C109.811 810.611 110.163 812.353 109.362 813.633L95.5505 835.642C94.7492 836.922 93.1251 837.209 91.8481 836.405C91.6294 836.266 91.4078 836.129 91.1837 835.998C89.8822 835.224 89.2945 833.602 89.9451 832.238ZM75.499 844.111C85.6328 844.111 93.8884 852.374 93.8911 862.508C93.8884 872.65 85.6331 880.889 75.499 880.886C65.3652 880.886 57.1207 872.65 57.1207 862.508C57.1234 852.374 65.3679 844.111 75.499 844.111ZM27.6486 897.709L48.5045 882.377C49.7212 881.482 51.4221 881.753 52.4202 882.888C53.421 884.028 54.5038 885.092 55.6631 886.074C56.8169 887.047 57.1234 888.748 56.2592 889.984L41.4057 911.192C40.5415 912.431 38.8326 912.732 37.6377 911.808C33.7358 908.797 30.2109 905.333 27.1154 901.496C26.1691 900.318 26.4318 898.606 27.6486 897.709Z" fill="#828282" fill-opacity="0.3"/>
<path d="M75.4983 873.763C81.7189 873.763 86.7617 868.721 86.7617 862.5C86.7617 856.279 81.7189 851.237 75.4983 851.237C69.2777 851.237 64.2349 856.279 64.2349 862.5C64.2349 868.721 69.2777 873.763 75.4983 873.763Z" fill="#828282" fill-opacity="0.3"/>
</g>
<g clip-path="url(#clip7)">
<path d="M1556.11 933.189C1567.57 941.234 1581.48 946 1596.5 946C1635.38 946 1666.99 914.381 1666.99 875.511C1666.99 867.953 1665.77 860.701 1663.56 853.862C1657.59 835.38 1644.15 820.258 1626.83 811.967C1617.63 807.551 1607.38 804.997 1596.5 805C1557.64 804.997 1526.01 836.646 1526.01 875.511C1526.01 891.13 1531.18 905.527 1539.8 917.22C1544.34 923.38 1549.83 928.776 1556.11 933.189ZM1644.55 836.086C1648.89 841.347 1652.38 847.321 1654.81 853.816C1655.34 855.229 1654.54 856.775 1653.11 857.239L1628.44 865.213C1627 865.678 1625.48 864.882 1624.89 863.49C1624.1 861.617 1623.12 859.837 1621.99 858.18C1621.14 856.928 1621.22 855.134 1622.3 854.076L1640.81 835.927C1641.89 834.871 1643.59 834.921 1644.55 836.086ZM1610.95 845.238L1622.09 821.861C1622.74 820.496 1624.38 819.919 1625.71 820.625C1627.01 821.311 1628.28 822.038 1629.53 822.812C1630.81 823.611 1631.16 825.353 1630.36 826.633L1616.55 848.642C1615.75 849.922 1614.13 850.209 1612.85 849.405C1612.63 849.266 1612.41 849.129 1612.18 848.998C1610.88 848.224 1610.29 846.602 1610.95 845.238ZM1596.5 857.111C1606.63 857.111 1614.89 865.374 1614.89 875.508C1614.89 885.65 1606.63 893.889 1596.5 893.886C1586.37 893.886 1578.12 885.65 1578.12 875.508C1578.12 865.374 1586.37 857.111 1596.5 857.111ZM1548.65 910.709L1569.5 895.377C1570.72 894.482 1572.42 894.753 1573.42 895.888C1574.42 897.028 1575.5 898.092 1576.66 899.074C1577.82 900.047 1578.12 901.748 1577.26 902.984L1562.41 924.192C1561.54 925.431 1559.83 925.732 1558.64 924.808C1554.74 921.797 1551.21 918.333 1548.12 914.496C1547.17 913.318 1547.43 911.606 1548.65 910.709Z" fill="#828282" fill-opacity="0.3"/>
<path d="M1596.5 886.763C1602.72 886.763 1607.76 881.721 1607.76 875.5C1607.76 869.279 1602.72 864.237 1596.5 864.237C1590.28 864.237 1585.23 869.279 1585.23 875.5C1585.23 881.721 1590.28 886.763 1596.5 886.763Z" fill="#828282" fill-opacity="0.3"/>
</g>
<g clip-path="url(#clip8)">
<path d="M1697.11 683.189C1708.57 691.234 1722.48 696 1737.5 696C1776.38 696 1807.99 664.381 1807.99 625.511C1807.99 617.953 1806.77 610.701 1804.56 603.862C1798.59 585.38 1785.15 570.258 1767.83 561.967C1758.63 557.551 1748.38 554.997 1737.5 555C1698.64 554.997 1667.01 586.646 1667.01 625.511C1667.01 641.13 1672.18 655.527 1680.8 667.22C1685.34 673.38 1690.83 678.776 1697.11 683.189ZM1785.55 586.086C1789.89 591.347 1793.38 597.321 1795.81 603.816C1796.34 605.229 1795.54 606.775 1794.11 607.239L1769.44 615.213C1768 615.678 1766.48 614.882 1765.89 613.49C1765.1 611.617 1764.12 609.837 1762.99 608.18C1762.14 606.928 1762.22 605.134 1763.3 604.076L1781.81 585.927C1782.89 584.871 1784.59 584.921 1785.55 586.086ZM1751.95 595.238L1763.09 571.861C1763.74 570.496 1765.38 569.919 1766.71 570.625C1768.01 571.311 1769.28 572.038 1770.53 572.812C1771.81 573.611 1772.16 575.353 1771.36 576.633L1757.55 598.642C1756.75 599.922 1755.13 600.209 1753.85 599.405C1753.63 599.266 1753.41 599.129 1753.18 598.998C1751.88 598.224 1751.29 596.602 1751.95 595.238ZM1737.5 607.111C1747.63 607.111 1755.89 615.374 1755.89 625.508C1755.89 635.65 1747.63 643.889 1737.5 643.886C1727.37 643.886 1719.12 635.65 1719.12 625.508C1719.12 615.374 1727.37 607.111 1737.5 607.111ZM1689.65 660.709L1710.5 645.377C1711.72 644.482 1713.42 644.753 1714.42 645.888C1715.42 647.028 1716.5 648.092 1717.66 649.074C1718.82 650.047 1719.12 651.748 1718.26 652.984L1703.41 674.192C1702.54 675.431 1700.83 675.732 1699.64 674.808C1695.74 671.797 1692.21 668.333 1689.12 664.496C1688.17 663.318 1688.43 661.606 1689.65 660.709Z" fill="#828282" fill-opacity="0.3"/>
<path d="M1737.5 636.763C1743.72 636.763 1748.76 631.721 1748.76 625.5C1748.76 619.279 1743.72 614.237 1737.5 614.237C1731.28 614.237 1726.23 619.279 1726.23 625.5C1726.23 631.721 1731.28 636.763 1737.5 636.763Z" fill="#828282" fill-opacity="0.3"/>
</g>
<g clip-path="url(#clip9)">
<path d="M1320.79 238.004C1327.94 243.025 1336.62 246 1346 246C1370.27 246 1390 226.266 1390 202.007C1390 197.29 1389.24 192.764 1387.86 188.495C1384.13 176.96 1375.74 167.523 1364.93 162.348C1359.19 159.592 1352.79 157.998 1346 158C1321.75 157.998 1302.01 177.751 1302.01 202.007C1302.01 211.755 1305.23 220.74 1310.61 228.038C1313.45 231.883 1316.87 235.25 1320.79 238.004ZM1375.99 177.401C1378.7 180.684 1380.88 184.413 1382.39 188.467C1382.72 189.349 1382.23 190.313 1381.33 190.603L1365.93 195.58C1365.04 195.87 1364.09 195.373 1363.72 194.505C1363.23 193.336 1362.62 192.225 1361.91 191.19C1361.38 190.409 1361.43 189.289 1362.1 188.629L1373.66 177.302C1374.33 176.643 1375.39 176.674 1375.99 177.401ZM1355.02 183.113L1361.97 168.523C1362.38 167.671 1363.4 167.311 1364.23 167.752C1365.04 168.18 1365.84 168.634 1366.61 169.117C1367.41 169.615 1367.64 170.702 1367.14 171.501L1358.52 185.238C1358.01 186.036 1357 186.216 1356.2 185.714C1356.07 185.627 1355.93 185.542 1355.79 185.46C1354.98 184.976 1354.61 183.964 1355.02 183.113ZM1346 190.523C1352.33 190.523 1357.48 195.68 1357.48 202.005C1357.48 208.335 1352.33 213.477 1346 213.475C1339.68 213.475 1334.53 208.335 1334.53 202.005C1334.53 195.68 1339.68 190.523 1346 190.523ZM1316.14 223.974L1329.15 214.405C1329.91 213.847 1330.97 214.016 1331.6 214.724C1332.22 215.436 1332.9 216.1 1333.62 216.713C1334.34 217.32 1334.53 218.382 1333.99 219.153L1324.72 232.39C1324.18 233.163 1323.12 233.35 1322.37 232.774C1319.94 230.895 1317.74 228.732 1315.8 226.338C1315.21 225.602 1315.38 224.534 1316.14 223.974Z" fill="#828282" fill-opacity="0.3"/>
<path d="M1346 209.03C1349.88 209.03 1353.03 205.882 1353.03 202C1353.03 198.118 1349.88 194.97 1346 194.97C1342.12 194.97 1338.97 198.118 1338.97 202C1338.97 205.882 1342.12 209.03 1346 209.03Z" fill="#828282" fill-opacity="0.3"/>
</g>
<g clip-path="url(#clip10)">
<path d="M577.961 595.825C589.747 604.098 604.051 609 619.503 609C659.488 609 691.992 576.484 691.992 536.511C691.992 528.739 690.741 521.281 688.466 514.248C682.321 495.242 668.506 479.691 650.694 471.165C641.226 466.624 630.687 463.997 619.501 464C579.539 463.997 547.012 496.544 547.012 536.511C547.012 552.573 552.329 567.379 561.19 579.403C565.867 585.739 571.507 591.287 577.961 595.825ZM668.911 495.967C673.374 501.378 676.967 507.522 679.465 514.201C680.007 515.654 679.192 517.243 677.716 517.721L652.345 525.921C650.869 526.399 649.3 525.581 648.695 524.15C647.883 522.224 646.881 520.393 645.717 518.689C644.84 517.401 644.924 515.556 646.035 514.468L665.07 495.804C666.178 494.719 667.924 494.769 668.911 495.967ZM634.357 505.379L645.818 481.339C646.488 479.936 648.169 479.343 649.541 480.068C650.877 480.774 652.185 481.522 653.467 482.318C654.786 483.139 655.149 484.93 654.324 486.246L640.121 508.88C639.297 510.196 637.627 510.492 636.314 509.665C636.089 509.521 635.861 509.381 635.63 509.246C634.292 508.45 633.687 506.782 634.357 505.379ZM619.501 517.589C629.922 517.589 638.412 526.087 638.414 536.508C638.412 546.938 629.922 555.411 619.501 555.408C609.079 555.408 600.601 546.938 600.601 536.508C600.604 526.087 609.082 517.589 619.501 517.589ZM570.293 572.708L591.74 556.941C592.992 556.021 594.741 556.299 595.767 557.466C596.796 558.639 597.91 559.733 599.102 560.742C600.289 561.744 600.604 563.493 599.715 564.764L584.44 586.574C583.551 587.848 581.794 588.157 580.565 587.207C576.553 584.11 572.928 580.548 569.744 576.602C568.771 575.39 569.041 573.63 570.293 572.708Z" fill="#828282" fill-opacity="0.3"/>
<path d="M619.499 548.083C625.896 548.083 631.082 542.897 631.082 536.5C631.082 530.103 625.896 524.917 619.499 524.917C613.102 524.917 607.916 530.103 607.916 536.5C607.916 542.897 613.102 548.083 619.499 548.083Z" fill="#828282" fill-opacity="0.3"/>
</g>
<path d="M412.871 669.629C411.511 668.427 409.709 667.85 407.904 668.037L292.833 680.823C289.594 681.181 287.143 683.919 287.143 687.177V801.104C281.349 797.637 274.717 795.822 267.965 795.856C250.339 795.856 236 807.325 236 821.427C236 835.53 250.339 846.999 267.964 846.999C285.589 846.999 299.928 835.536 299.928 821.427V724.895L402.214 713.503V788.3C396.418 784.839 389.786 783.031 383.035 783.07C365.41 783.07 351.071 794.539 351.071 808.642C351.071 822.744 365.411 834.213 383.035 834.213C400.66 834.213 415 822.751 415 808.642V674.392C415 672.574 414.226 670.842 412.871 669.629Z" fill="#828282" fill-opacity="0.3"/>
<path d="M1458.87 627.629C1457.51 626.427 1455.71 625.85 1453.9 626.037L1338.83 638.823C1335.59 639.181 1333.14 641.919 1333.14 645.177V759.104C1327.35 755.637 1320.72 753.822 1313.96 753.856C1296.34 753.856 1282 765.325 1282 779.427C1282 793.53 1296.34 804.999 1313.96 804.999C1331.59 804.999 1345.93 793.536 1345.93 779.427V682.895L1448.21 671.503V746.3C1442.42 742.839 1435.79 741.031 1429.04 741.07C1411.41 741.07 1397.07 752.539 1397.07 766.642C1397.07 780.744 1411.41 792.213 1429.04 792.213C1446.66 792.213 1461 780.751 1461 766.642V632.392C1461 630.574 1460.23 628.842 1458.87 627.629Z" fill="#828282" fill-opacity="0.3"/>
<path d="M935.871 601.629C934.511 600.427 932.709 599.85 930.904 600.037L815.833 612.823C812.594 613.181 810.143 615.919 810.143 619.177V733.104C804.349 729.637 797.717 727.822 790.965 727.856C773.339 727.856 759 739.325 759 753.427C759 767.53 773.339 778.999 790.964 778.999C808.589 778.999 822.928 767.536 822.928 753.427V656.895L925.214 645.503V720.3C919.418 716.839 912.786 715.031 906.035 715.07C888.41 715.07 874.071 726.539 874.071 740.642C874.071 754.744 888.411 766.213 906.035 766.213C923.66 766.213 938 754.751 938 740.642V606.392C938 604.574 937.226 602.842 935.871 601.629Z" fill="#828282" fill-opacity="0.3"/>
<g clip-path="url(#clip11)">
<path d="M1491.96 510.847C1492.9 509.926 1493.24 508.575 1492.83 507.319C1492.42 506.062 1491.36 505.166 1490.05 504.975L1478.43 503.287C1477.93 503.214 1477.5 502.904 1477.28 502.455L1472.09 491.925C1471.5 490.742 1470.32 490.006 1469 490.006C1467.68 490.006 1466.5 490.742 1465.91 491.925L1460.72 502.456C1460.5 502.905 1460.07 503.215 1459.57 503.288L1447.95 504.976C1446.64 505.166 1445.58 506.063 1445.17 507.32C1444.76 508.576 1445.1 509.927 1446.04 510.848L1454.45 519.045C1454.81 519.395 1454.97 519.898 1454.89 520.39L1452.9 531.965C1452.73 532.983 1453 533.974 1453.65 534.756C1454.68 535.973 1456.47 536.344 1457.9 535.593L1468.29 530.128C1468.73 529.9 1469.27 529.902 1469.71 530.128L1480.1 535.593C1480.61 535.859 1481.15 535.994 1481.7 535.994C1482.72 535.994 1483.68 535.542 1484.34 534.756C1485 533.974 1485.27 532.981 1485.1 531.965L1483.11 520.39C1483.03 519.897 1483.19 519.395 1483.55 519.045L1491.96 510.847Z" fill="#828282" fill-opacity="0.3"/>
</g>
<g clip-path="url(#clip12)">
<path d="M238.448 407.687C238.819 406.421 238.447 405.08 237.475 404.185C236.503 403.291 235.136 403.032 233.903 403.508L222.948 407.74C222.481 407.92 221.956 407.859 221.543 407.576L211.848 400.951C210.759 400.206 209.367 400.147 208.217 400.794C207.068 401.441 206.397 402.663 206.469 403.98L207.109 415.707C207.137 416.206 206.916 416.687 206.52 416.993L197.222 424.168C196.176 424.973 195.689 426.278 195.95 427.573C196.211 428.868 197.165 429.882 198.44 430.22L209.789 433.236C210.273 433.365 210.663 433.723 210.831 434.193L214.782 445.251C215.129 446.225 215.848 446.958 216.806 447.315C218.296 447.873 220.037 447.319 220.914 445.962L227.289 436.1C227.556 435.688 228.033 435.421 228.522 435.406L240.261 435.066C240.832 435.05 241.368 434.903 241.853 434.63C242.738 434.131 243.355 433.265 243.547 432.255C243.738 431.25 243.483 430.255 242.831 429.455L235.422 420.344C235.106 419.956 235.003 419.437 235.143 418.956L238.448 407.687Z" fill="#828282" fill-opacity="0.3"/>
</g>
<g clip-path="url(#clip13)">
<path d="M898.958 98.847C899.903 97.9262 900.236 96.5748 899.829 95.3186C899.42 94.0624 898.356 93.1656 897.049 92.9753L885.427 91.2866C884.932 91.2145 884.504 90.904 884.283 90.4552L879.087 79.9248C878.504 78.7416 877.319 78.0063 876 78.0063C874.681 78.0063 873.497 78.7416 872.914 79.9248L867.717 90.4561C867.495 90.905 867.067 91.2154 866.572 91.2875L854.95 92.9763C853.643 93.1656 852.578 94.0633 852.17 95.3196C851.762 96.5758 852.096 97.9272 853.041 98.848L861.45 107.045C861.808 107.395 861.973 107.898 861.888 108.39L859.904 119.965C859.728 120.983 859.996 121.974 860.655 122.756C861.68 123.973 863.468 124.344 864.898 123.593L875.292 118.128C875.727 117.9 876.274 117.902 876.707 118.128L887.102 123.593C887.608 123.859 888.147 123.994 888.703 123.994C889.719 123.994 890.682 123.542 891.345 122.756C892.005 121.974 892.271 120.981 892.095 119.965L890.11 108.39C890.026 107.897 890.19 107.395 890.549 107.045L898.958 98.847Z" fill="#828282" fill-opacity="0.3"/>
</g>
<g clip-path="url(#clip14)">
<path d="M1486.86 40.7727C1485.65 41.2945 1484.85 42.4372 1484.78 43.7561C1484.72 45.0753 1485.39 46.2933 1486.54 46.9387L1496.79 52.6733C1497.23 52.9177 1497.52 53.3606 1497.56 53.8589L1498.65 65.5512C1498.77 66.8648 1499.61 67.975 1500.84 68.4471C1502.07 68.9188 1503.44 68.6558 1504.41 67.7596L1513.03 59.7843C1513.4 59.4443 1513.91 59.3077 1514.4 59.4175L1525.86 61.9981C1527.14 62.2886 1528.46 61.8313 1529.29 60.8043C1530.12 59.777 1530.29 58.3957 1529.74 57.1979L1524.82 46.5354C1524.61 46.0804 1524.64 45.5513 1524.89 45.122L1530.88 35.0234C1531.41 34.1349 1531.52 33.114 1531.18 32.1484C1530.66 30.6447 1529.12 29.6583 1527.52 29.8486L1515.86 31.2338C1515.37 31.2911 1514.86 31.0937 1514.54 30.7277L1506.78 21.9056C1506.41 21.4761 1505.95 21.1576 1505.43 20.9585C1504.48 20.5951 1503.42 20.6724 1502.52 21.1697C1501.63 21.6632 1501.02 22.4951 1500.82 23.5076L1498.54 35.0259C1498.44 35.5166 1498.11 35.9273 1497.65 36.1257L1486.86 40.7727Z" fill="#828282" fill-opacity="0.3"/>
</g>
<g clip-path="url(#clip15)">
<path d="M1443.42 473.226C1444.85 471.825 1445.36 469.77 1444.74 467.86C1444.12 465.949 1442.5 464.585 1440.51 464.296L1422.84 461.728C1422.08 461.618 1421.43 461.146 1421.1 460.463L1413.2 444.448C1412.31 442.649 1410.51 441.53 1408.5 441.53C1406.49 441.53 1404.69 442.649 1403.81 444.448L1395.9 460.465C1395.57 461.147 1394.91 461.619 1394.16 461.729L1376.49 464.297C1374.5 464.585 1372.88 465.951 1372.26 467.861C1371.64 469.772 1372.15 471.827 1373.58 473.227L1386.37 485.693C1386.92 486.225 1387.17 486.991 1387.04 487.739L1384.02 505.342C1383.75 506.891 1384.16 508.398 1385.16 509.587C1386.72 511.439 1389.44 512.003 1391.62 510.86L1407.42 502.548C1408.09 502.202 1408.92 502.205 1409.58 502.548L1425.38 510.86C1426.15 511.265 1426.97 511.47 1427.82 511.47C1429.37 511.47 1430.83 510.783 1431.84 509.587C1432.84 508.398 1433.25 506.888 1432.98 505.342L1429.96 487.739C1429.83 486.99 1430.08 486.225 1430.63 485.693L1443.42 473.226Z" fill="#828282" fill-opacity="0.3"/>
</g>
<g clip-path="url(#clip16)">
<path d="M177.69 398.728C178.255 396.802 177.688 394.763 176.211 393.402C174.732 392.042 172.653 391.648 170.779 392.372L154.117 398.807C153.408 399.081 152.609 398.989 151.981 398.559L137.237 388.483C135.581 387.35 133.463 387.26 131.714 388.245C129.967 389.229 128.946 391.087 129.056 393.09L130.029 410.924C130.071 411.684 129.735 412.415 129.133 412.88L114.992 423.792C113.403 425.017 112.661 427.002 113.057 428.971C113.455 430.94 114.905 432.482 116.845 432.997L134.105 437.583C134.841 437.779 135.435 438.324 135.69 439.039L141.699 455.857C142.226 457.338 143.32 458.452 144.777 458.995C147.043 459.844 149.691 459.001 151.025 456.938L160.72 441.939C161.125 441.313 161.851 440.907 162.594 440.883L180.448 440.367C181.316 440.343 182.131 440.119 182.869 439.703C184.215 438.945 185.154 437.628 185.445 436.092C185.736 434.563 185.348 433.049 184.356 431.833L173.088 417.977C172.608 417.386 172.451 416.598 172.665 415.866L177.69 398.728Z" fill="#828282" fill-opacity="0.3"/>
</g>
<g clip-path="url(#clip17)">
<path d="M850.416 61.2257C851.853 59.8253 852.36 57.7701 851.74 55.8596C851.119 53.9491 849.501 52.5852 847.513 52.2958L829.837 49.7275C829.084 49.6179 828.434 49.1457 828.098 48.4631L820.195 32.4481C819.308 30.6487 817.507 29.5305 815.5 29.5305C813.495 29.5305 811.694 30.6487 810.806 32.4481L802.903 48.4646C802.567 49.1472 801.915 49.6193 801.162 49.729L783.486 52.2973C781.5 52.5852 779.88 53.9505 779.259 55.861C778.639 57.7715 779.146 59.8268 780.583 61.2271L793.372 73.693C793.917 74.225 794.167 74.991 794.039 75.7394L791.022 93.3419C790.754 94.8913 791.161 96.3984 792.163 97.5868C793.722 99.4388 796.442 100.003 798.617 98.86L814.424 90.5485C815.085 90.202 815.917 90.2049 816.576 90.5485L832.385 98.86C833.154 99.2649 833.974 99.4695 834.82 99.4695C836.365 99.4695 837.83 98.7825 838.837 97.5868C839.841 96.3984 840.246 94.8884 839.979 93.3419L836.96 75.7394C836.832 74.9895 837.082 74.225 837.627 73.693L850.416 61.2257Z" fill="#828282" fill-opacity="0.3"/>
</g>
<g clip-path="url(#clip18)">
<path d="M1518.73 93.2697C1516.89 94.0633 1515.68 95.8011 1515.58 97.8069C1515.47 99.8132 1516.49 101.666 1518.25 102.647L1533.83 111.369C1534.5 111.74 1534.94 112.414 1535.01 113.172L1536.66 130.954C1536.84 132.951 1538.12 134.64 1540 135.358C1541.87 136.075 1543.95 135.675 1545.42 134.312L1558.53 122.183C1559.09 121.666 1559.87 121.458 1560.61 121.625L1578.04 125.55C1580 125.992 1582 125.296 1583.26 123.734C1584.52 122.172 1584.78 120.071 1583.94 118.25L1576.46 102.034C1576.14 101.342 1576.18 100.537 1576.57 99.8843L1585.68 84.526C1586.49 83.1748 1586.65 81.6221 1586.14 80.1536C1585.34 77.8667 1583.01 76.3666 1580.57 76.656L1562.83 78.7627C1562.09 78.8498 1561.31 78.5495 1560.82 77.9929L1549.03 64.576C1548.46 63.9229 1547.77 63.4384 1546.98 63.1357C1545.53 62.5829 1543.92 62.7005 1542.55 63.4568C1541.19 64.2073 1540.27 65.4726 1539.97 67.0124L1536.49 84.5298C1536.34 85.2761 1535.83 85.9006 1535.13 86.2024L1518.73 93.2697Z" fill="#828282" fill-opacity="0.3"/>
</g>
<g clip-path="url(#clip19)">
<path d="M1369.4 505.618C1371.76 503.316 1372.59 499.937 1371.57 496.797C1370.55 493.656 1367.89 491.414 1364.62 490.938L1335.57 486.716C1334.33 486.536 1333.26 485.76 1332.71 484.638L1319.72 458.312C1318.26 455.354 1315.3 453.516 1312 453.516C1308.7 453.516 1305.74 455.354 1304.28 458.312L1291.29 484.64C1290.74 485.763 1289.67 486.539 1288.43 486.719L1259.37 490.941C1256.11 491.414 1253.45 493.658 1252.43 496.799C1251.41 499.94 1252.24 503.318 1254.6 505.62L1275.63 526.112C1276.52 526.986 1276.93 528.245 1276.72 529.476L1271.76 558.411C1271.32 560.958 1271.99 563.436 1273.64 565.389C1276.2 568.434 1280.67 569.361 1284.25 567.482L1310.23 553.819C1311.32 553.25 1312.68 553.255 1313.77 553.819L1339.76 567.482C1341.02 568.148 1342.37 568.484 1343.76 568.484C1346.3 568.484 1348.71 567.355 1350.36 565.389C1352.01 563.436 1352.68 560.954 1352.24 558.411L1347.28 529.476C1347.07 528.243 1347.48 526.986 1348.37 526.112L1369.4 505.618Z" fill="#828282" fill-opacity="0.3"/>
</g>
<g clip-path="url(#clip20)">
<path d="M129.091 463.274C130.019 460.109 129.088 456.757 126.659 454.52C124.228 452.285 120.81 451.637 117.729 452.826L90.3406 463.405C89.1739 463.856 87.8614 463.704 86.8292 462.998L62.5921 446.434C59.8697 444.572 56.3883 444.423 53.5137 446.042C50.6412 447.66 48.9638 450.714 49.1444 454.007L50.7437 483.323C50.8129 484.572 50.2599 485.774 49.2701 486.539L26.0251 504.475C23.4121 506.49 22.1936 509.752 22.845 512.99C23.4984 516.226 25.8828 518.761 29.0705 519.607L57.4437 527.146C58.6539 527.468 59.6298 528.364 60.0492 529.539L69.9271 557.185C70.7938 559.62 72.5915 561.451 74.9864 562.344C78.7123 563.74 83.0637 562.354 85.2571 558.962L101.193 534.306C101.86 533.277 103.054 532.61 104.275 532.571L133.623 531.723C135.051 531.683 136.391 531.314 137.603 530.631C139.816 529.385 141.36 527.22 141.838 524.694C142.317 522.182 141.679 519.693 140.048 517.694L121.526 494.916C120.737 493.946 120.478 492.649 120.83 491.448L129.091 463.274Z" fill="#828282" fill-opacity="0.3"/>
</g>
<g clip-path="url(#clip21)">
<path d="M776.395 93.6175C778.757 91.3156 779.591 87.9371 778.572 84.7965C777.551 81.656 774.891 79.4141 771.623 78.9383L742.567 74.7165C741.33 74.5362 740.261 73.7601 739.708 72.638L726.718 46.312C725.259 43.354 722.299 41.5158 719 41.5158C715.703 41.5158 712.743 43.354 711.284 46.312L698.292 72.6404C697.739 73.7625 696.668 74.5386 695.43 74.7189L666.374 78.9407C663.109 79.4141 660.446 81.6584 659.425 84.7989C658.406 87.9395 659.24 91.318 661.602 93.6199L682.625 114.112C683.521 114.986 683.932 116.245 683.721 117.476L678.761 146.411C678.322 148.958 678.99 151.436 680.638 153.389C683.199 156.434 687.671 157.361 691.247 155.482L717.231 141.819C718.318 141.25 719.685 141.255 720.768 141.819L746.756 155.482C748.02 156.148 749.368 156.484 750.759 156.484C753.299 156.484 755.706 155.355 757.362 153.389C759.013 151.436 759.678 148.954 759.239 146.411L754.277 117.476C754.065 116.243 754.476 114.986 755.372 114.112L776.395 93.6175Z" fill="#828282" fill-opacity="0.3"/>
</g>
<g clip-path="url(#clip22)">
<path d="M1599.44 89.5009C1596.41 90.8055 1594.42 93.6621 1594.25 96.9593C1594.08 100.257 1595.77 103.303 1598.65 104.916L1624.27 119.252C1625.36 119.863 1626.08 120.971 1626.2 122.216L1628.91 151.447C1629.21 154.731 1631.32 157.507 1634.4 158.687C1637.48 159.866 1640.9 159.209 1643.32 156.968L1664.87 137.03C1665.79 136.18 1667.07 135.838 1668.29 136.113L1696.93 142.565C1700.15 143.291 1703.44 142.147 1705.52 139.58C1707.59 137.012 1708.02 133.559 1706.64 130.564L1694.34 103.908C1693.81 102.77 1693.88 101.447 1694.52 100.374L1709.5 75.1278C1710.82 72.9066 1711.08 70.3542 1710.24 67.9402C1708.94 64.1809 1705.1 61.7151 1701.09 62.1907L1671.93 65.6537C1670.72 65.797 1669.44 65.3034 1668.63 64.3884L1649.25 42.3333C1648.31 41.2596 1647.17 40.4632 1645.87 39.9655C1643.5 39.0569 1640.85 39.2502 1638.6 40.4935C1636.36 41.7272 1634.85 43.807 1634.35 46.3383L1628.63 75.134C1628.39 76.3608 1627.55 77.3874 1626.4 77.8835L1599.44 89.5009Z" fill="#828282" fill-opacity="0.3"/>
</g>
<g clip-path="url(#clip23)">
<path d="M1690.54 271.941C1689.07 271.277 1687.39 271.26 1685.91 271.892L1591.6 312.907C1588.94 314.061 1587.58 317.026 1588.43 319.792L1618.3 416.483C1612.47 415.059 1606.37 415.257 1600.64 417.056C1585.69 421.676 1576.52 435.168 1580.22 447.137C1583.92 459.106 1599.09 465.081 1614.05 460.461C1629.01 455.841 1638.17 442.354 1634.47 430.38L1609.17 348.452L1693 311.971L1712.6 375.451C1706.78 374.034 1700.67 374.237 1694.95 376.04C1680 380.66 1670.83 394.153 1674.53 406.122C1678.23 418.091 1693.4 424.066 1708.36 419.446C1723.32 414.826 1732.48 401.338 1728.79 389.364L1693.59 275.425C1693.12 273.882 1692.01 272.615 1690.54 271.941Z" fill="#828282" fill-opacity="0.3"/>
</g>
<g clip-path="url(#clip24)">
<path d="M1142.9 177.676C1142.24 176.78 1141.23 176.202 1140.12 176.083L1069.43 168.989C1067.44 168.788 1065.62 170.116 1065.2 172.072L1050.58 240.437C1047.55 237.613 1043.8 235.673 1039.74 234.827C1029.17 232.565 1019.09 237.607 1017.28 246.07C1015.47 254.532 1022.6 263.255 1033.18 265.516C1043.76 267.778 1053.83 262.74 1055.64 254.273L1068.03 196.346L1130.87 202.636L1121.27 247.52C1118.24 244.7 1114.49 242.763 1110.44 241.921C1099.86 239.659 1089.78 244.701 1087.97 253.164C1086.16 261.627 1093.3 270.349 1103.87 272.611C1114.45 274.873 1124.53 269.834 1126.34 261.368L1143.56 180.807C1143.8 179.716 1143.56 178.577 1142.9 177.676Z" fill="#828282" fill-opacity="0.3"/>
</g>
<g clip-path="url(#clip25)">
<path d="M565.546 204.614C564.438 203.617 562.962 203.13 561.478 203.27L466.876 212.942C464.213 213.213 462.18 215.443 462.157 218.12L461.335 311.69C456.602 308.801 451.168 307.262 445.622 307.241C431.146 307.114 419.286 316.43 419.184 328.013C419.083 339.596 430.777 349.119 445.253 349.246C459.728 349.373 471.588 340.062 471.69 328.474L472.386 249.191L556.477 240.572L555.938 302.003C551.202 299.119 545.768 297.586 540.224 297.57C525.748 297.443 513.888 306.759 513.787 318.342C513.685 329.924 525.379 339.447 539.855 339.574C554.33 339.702 566.19 330.391 566.292 318.803L567.26 208.541C567.273 207.047 566.65 205.619 565.546 204.614Z" fill="#828282" fill-opacity="0.3"/>
</g>
<g clip-path="url(#clip26)">
<path d="M677.836 812.041L579.268 784.426C574.716 783.149 570.539 783.073 567.446 784.122C561.465 786.152 559.394 792.208 562.121 800.242L602.281 918.59C605.005 926.616 610.325 930.152 616.292 928.128C619.391 927.076 622.598 924.493 625.439 920.699L686.881 838.787C690.83 833.513 692.069 827.8 690.339 822.702C688.612 817.608 684.184 813.819 677.836 812.041Z" fill="#828282" fill-opacity="0.3"/>
</g>
<defs>
<clipPath id="clip0">
<rect width="147" height="147" fill="white" transform="translate(242 453)"/>
</clipPath>
<clipPath id="clip1">
<rect width="147" height="147" fill="white" transform="translate(219 25.0289) rotate(-9.8032)"/>
</clipPath>
<clipPath id="clip2">
<rect width="147" height="147" fill="white" transform="translate(1019 805)"/>
</clipPath>
<clipPath id="clip3">
<rect width="147" height="147" fill="white" transform="translate(968 427)"/>
</clipPath>
<clipPath id="clip4">
<rect width="147" height="147" fill="white" transform="translate(1189.63 4) rotate(8.06792)"/>
</clipPath>
<clipPath id="clip5">
<rect width="141" height="141" fill="white" transform="translate(17 176)"/>
</clipPath>
<clipPath id="clip6">
<rect width="141" height="141" fill="white" transform="translate(5 792)"/>
</clipPath>
<clipPath id="clip7">
<rect width="141" height="141" fill="white" transform="translate(1526 805)"/>
</clipPath>
<clipPath id="clip8">
<rect width="141" height="141" fill="white" transform="translate(1667 555)"/>
</clipPath>
<clipPath id="clip9">
<rect width="88" height="88" fill="white" transform="translate(1302 158)"/>
</clipPath>
<clipPath id="clip10">
<rect width="145" height="145" fill="white" transform="translate(547 464)"/>
</clipPath>
<clipPath id="clip11">
<rect width="48" height="48" fill="white" transform="translate(1445 489)"/>
</clipPath>
<clipPath id="clip12">
<rect width="48" height="48" fill="white" transform="translate(186.812 411.695) rotate(-29.3878)"/>
</clipPath>
<clipPath id="clip13">
<rect width="48" height="48" fill="white" transform="translate(852 77)"/>
</clipPath>
<clipPath id="clip14">
<rect width="48" height="48" fill="white" transform="translate(1522.9 77.9724) rotate(-159.039)"/>
</clipPath>
<clipPath id="clip15">
<rect width="73" height="73" fill="white" transform="translate(1372 440)"/>
</clipPath>
<clipPath id="clip16">
<rect width="73" height="73" fill="white" transform="translate(99.1602 404.822) rotate(-29.3878)"/>
</clipPath>
<clipPath id="clip17">
<rect width="73" height="73" fill="white" transform="translate(779 28)"/>
</clipPath>
<clipPath id="clip18">
<rect width="73" height="73" fill="white" transform="translate(1573.54 149.844) rotate(-159.039)"/>
</clipPath>
<clipPath id="clip19">
<rect width="120" height="120" fill="white" transform="translate(1252 451)"/>
</clipPath>
<clipPath id="clip20">
<rect width="120" height="120" fill="white" transform="translate(0 473.293) rotate(-29.3878)"/>
</clipPath>
<clipPath id="clip21">
<rect width="120" height="120" fill="white" transform="translate(659 39)"/>
</clipPath>
<clipPath id="clip22">
<rect width="120" height="120" fill="white" transform="translate(1689.53 182.5) rotate(-159.039)"/>
</clipPath>
<clipPath id="clip23">
<rect width="159" height="159" fill="white" transform="translate(1540 316.922) rotate(-17.164)"/>
</clipPath>
<clipPath id="clip24">
<rect width="109.843" height="109.843" fill="white" transform="translate(1036.97 154) rotate(12.0709)"/>
</clipPath>
<clipPath id="clip25">
<rect width="147.021" height="147.021" fill="white" transform="translate(420.291 202) rotate(0.503)"/>
</clipPath>
<clipPath id="clip26">
<rect width="152.064" height="152.064" fill="white" transform="translate(539.838 793.491) rotate(-18.7444)"/>
</clipPath>
</defs>
</svg>
